<?xml version="1.0" encoding="UTF-8" standalone="no"?>
<!-- Created with Inkscape (http://www.inkscape.org/) -->

<svg
   width="81.991844mm"
   height="101.58347mm"
   viewBox="0 0 81.991844 101.58347"
   version="1.1"
   id="svg1"
   xmlns="http://www.w3.org/2000/svg"
   xmlns:svg="http://www.w3.org/2000/svg"
   xmlns:rdf="http://www.w3.org/1999/02/22-rdf-syntax-ns#"
   xmlns:cc="http://creativecommons.org/ns#"
   xmlns:dc="http://purl.org/dc/elements/1.1/">
  <defs
     id="defs1" />
  <g
     id="layer1"
     transform="translate(-65.719812,-108.70255)">
    <rect
       style="fill:none;stroke-width:0.264583"
       id="rect2"
       width="47.884781"
       height="26.546579"
       x="55.368298"
       y="90.322083" />
  </g>
  <g
     id="layer4"
     transform="translate(-65.719812,-108.70255)">
    <path
       style="fill:#ff0000;fill-opacity:0.4;stroke:#ff0000;stroke-width:0.465;stroke-dasharray:none;stroke-opacity:1"
       d="m 113.66832,209.95667 c -3.43782,-0.0477 -10.31346,-0.14318 -16.006539,-0.73498 -5.693079,-0.5918 -10.203606,-1.67996 -13.511879,-2.62629 -3.308273,-0.94634 -5.414292,-1.75086 -7.977883,-3.42127 -2.56359,-1.67041 -5.58475,-4.2067 -7.490777,-8.05477 -1.906028,-3.84807 -2.696924,-9.00792 -2.727983,-13.73552 -0.03106,-4.7276 0.697716,-9.02292 2.271932,-13.41235 1.574217,-4.38942 3.993869,-8.87293 6.585487,-12.24783 2.591618,-3.3749 5.355201,-5.64119 8.774838,-8.0234 3.419638,-2.3822 7.495324,-4.88031 10.737692,-8.77884 3.242368,-3.89852 5.651415,-9.19746 6.651402,-12.54236 0.99998,-3.34491 0.59089,-4.73578 0.0727,-6.263 -0.51817,-1.52723 -1.14544,-3.19082 -0.79848,-4.91032 0.34696,-1.71949 1.66815,-3.4949 2.60753,-4.53123 0.93938,-1.03634 1.49694,-1.3336 1.88784,-1.53542 0.39091,-0.20181 0.61515,-0.30817 0.34394,-0.0191 -0.27121,0.28908 -1.03786,0.9736 -1.67876,1.62268 -0.6409,0.64907 -1.15604,1.26269 -1.15149,2.65356 0.005,1.39086 0.52878,3.55899 1.21058,5.15576 0.68181,1.59677 1.52118,2.6222 2.16435,3.75944 0.64317,1.13724 1.09013,2.38629 1.63861,4.53259 0.54848,2.1463 1.19846,5.18986 1.928,7.49843 0.72953,2.30857 1.53861,3.88216 2.42798,4.61578 0.88938,0.73361 1.85906,0.62725 2.39845,-0.52635 0.53938,-1.15361 0.64848,-3.35446 0.62878,-5.07668 -0.0197,-1.72222 -0.16818,-2.96582 0.29697,-4.33215 0.46514,-1.36632 1.5439,-2.85537 2.36662,-3.74444 0.82271,-0.88906 1.38937,-1.17815 1.69845,-1.33632 0.30909,-0.15818 0.36059,-0.18544 0.0364,0.12546 -0.32423,0.31091 -1.02422,0.95998 -1.253,2.61266 -0.22879,1.65268 0.0136,4.30897 0.39393,6.04755 0.3803,1.73859 0.89847,2.55947 1.49694,3.8058 0.59847,1.24633 1.27724,2.9181 2.02723,4.48488 0.74999,1.56677 1.57118,3.02855 3.1757,4.48078 1.60452,1.45223 3.99236,2.89491 6.47262,4.84962 2.48026,1.95472 5.05294,4.42147 7.15896,7.05254 2.10603,2.63106 3.74538,5.42642 4.95143,8.03363 1.20604,2.60722 1.97875,5.02621 2.57343,7.47729 0.59469,2.45107 1.01135,4.93416 1.26059,8.42021 0.24923,3.48604 0.33105,7.97498 -0.56591,11.38261 -0.89695,3.40764 -2.77267,5.73393 -4.97036,7.81206 -2.19769,2.07813 -4.71732,3.90806 -6.67411,5.12031 -1.9568,1.21224 -3.35072,1.80678 -4.48911,2.25301 -1.13839,0.44624 -2.02127,0.74419 -3.37745,1.01888 -1.35617,0.27469 -3.18561,0.52612 -5.01506,0.77755 -0.16856,0.0531 -0.33713,0.10622 -1.12655,0.17364 -0.78942,0.0674 -2.19971,0.14916 -2.96755,0.17377 -0.76785,0.0246 -0.89325,-0.008 -0.95596,-0.0241 -0.0627,-0.0163 -0.0627,-0.016 -3.50051,-0.0638 z"
       id="path5" />
  </g>
  <g
     id="layer2"
     style="display:inline"
     transform="translate(-65.719812,-108.70255)">
    <path
       id="rect6"
       style="fill:#ffffff;fill-opacity:0.4;stroke:#000000;stroke-width:0.288;stroke-dasharray:none"
       d="m 91.048045,153.35739 31.039055,-1e-5 11.21019,45.60447 H 79.837851 Z" />
  </g>
  <g
     id="layer3"
     transform="translate(-65.719812,-108.70255)">
    <g
       id="comic-comet"
       style="font-size:10.5833px;white-space:pre;inline-size:37.8209;fill:none;stroke:#000000;stroke-width:0.264583;image-rendering:crisp-edges"
       transform="translate(2.9782123,37.784985)"
       aria-label="COMIC&#10;COMET">
      <path
         style="fill:#cc6600"
         d="m 92.838917,127.38345 c -0.640695,0 -1.179694,0.18809 -1.620746,0.56751 -0.446126,0.38378 -0.738645,0.91683 -0.875764,1.60621 -0.138888,0.69828 -0.07234,1.2624 0.204265,1.68544 0.286953,0.42268 0.797638,0.63595 1.529453,0.63595 0.279637,0 0.547954,-0.0222 0.804722,-0.0666 0.256445,-0.0444 0.508276,-0.0997 0.755396,-0.16597 l -0.09531,0.65177 c -0.252031,0.0844 -0.510203,0.14647 -0.774286,0.18601 -0.258372,0.0396 -0.564833,0.0594 -0.919168,0.0594 -0.654617,0 -1.177444,-0.12715 -1.566394,-0.38009 -0.386198,-0.25115 -0.641612,-0.60529 -0.767062,-1.05932 -0.117995,-0.4482 -0.113735,-0.96742 0.01005,-1.55436 0.117383,-0.55658 0.329558,-1.03873 0.635128,-1.44942 0.308458,-0.41062 0.698278,-0.72625 1.169894,-0.94953 0.469329,-0.22658 1.006555,-0.33929 1.614095,-0.33929 0.624108,0 1.153049,0.1007 1.588827,0.30303 l -0.381423,0.55551 c -0.173602,-0.0736 -0.370273,-0.13975 -0.590013,-0.19842 -0.213775,-0.0586 -0.454236,-0.0878 -0.721657,-0.0878 z m 7.654413,2.16593 c -0.0293,0.58165 -0.1664,1.09811 -0.41328,1.54621 -0.243847,0.44842 -0.591811,0.80243 -1.043988,1.05907 -0.455473,0.25852 -1.008763,0.38849 -1.657375,0.38849 -0.666629,0 -1.207978,-0.12997 -1.62178,-0.38849 -0.404858,-0.25664 -0.684242,-0.61341 -0.838837,-1.06722 -0.152613,-0.448 -0.188843,-0.96433 -0.111145,-1.54586 0.07571,-0.56667 0.24273,-1.0536 0.499613,-1.46401 0.253767,-0.40543 0.596743,-0.71847 1.029028,-0.94165 0.434909,-0.22168 0.960528,-0.33196 1.579046,-0.33196 0.590905,0 1.079632,0.11028 1.468138,0.33196 0.391442,0.21831 0.67948,0.5313 0.86385,0.94165 0.1926,0.41041 0.27555,0.89989 0.24673,1.47181 z m -4.867557,0 c -0.08619,0.70871 0.01159,1.27828 0.297267,1.70141 0.289776,0.42279 0.795981,0.6361 1.515981,0.6361 0.725951,0 1.271359,-0.21331 1.632943,-0.6361 0.357619,-0.42313 0.557266,-0.9927 0.60148,-1.70141 0.04331,-0.69432 -0.08165,-1.22717 -0.371766,-1.60585 -0.286496,-0.37933 -0.76555,-0.56739 -1.439598,-0.56739 -0.674049,0 -1.193221,0.18806 -1.560638,0.56739 -0.365394,0.37868 -0.59123,0.91153 -0.675669,1.60585 z m 8.976937,2.90895 -2.01413,-4.93575 h -0.0335 c 0.0136,0.15202 0.0234,0.35907 0.0293,0.62221 0.006,0.2602 0.006,0.53509 4.7e-4,0.82501 l -0.0696,3.48853 h -0.74681 l 0.16968,-5.5753 h 1.10307 l 1.88825,4.49899 h 0.0354 l 1.79188,-4.49899 1.09477,0 0.33233,5.5753 h -0.8008 l -0.17096,-3.53447 c -0.0128,-0.26423 -0.0197,-0.52389 -0.0208,-0.77907 0.005,-0.25324 0.009,-0.45791 0.012,-0.61486 h -0.0335 l -1.90123,4.9284 z m 7.13524,0 h -2.32143 l -0.0337,-0.4378 0.73729,-0.15864 -0.39002,-4.45651 -0.71343,-0.14593 -0.0289,-0.37642 h 2.13977 l 0.0412,0.37642 -0.68623,0.14593 0.44067,4.45651 0.76686,0.15864 z m 3.15482,-5.07488 c -0.6407,0 -1.11701,0.18809 -1.43161,0.56751 -0.31823,0.38378 -0.43309,0.91683 -0.34046,1.60621 0.0938,0.69828 0.34837,1.2624 0.76597,1.68544 0.42782,0.42268 1.00958,0.63595 1.74139,0.63595 0.27964,0 0.54056,-0.0222 0.78251,-0.0666 0.24166,-0.0444 0.47505,-0.0997 0.70009,-0.16597 l 0.12191,0.65177 c -0.22391,0.0844 -0.4614,0.14647 -0.7123,0.18601 -0.24518,0.0396 -0.54504,0.0594 -0.89937,0.0594 -0.65461,0 -1.21982,-0.12715 -1.69307,-0.38009 -0.46989,-0.25115 -0.84333,-0.60529 -1.1201,-1.05932 -0.26736,-0.4482 -0.43614,-0.96742 -0.50797,-1.55436 -0.0681,-0.55658 -0.0166,-1.03873 0.15208,-1.44942 0.17161,-0.41062 0.45624,-0.72625 0.85344,-0.94953 0.39381,-0.22658 0.89348,-0.33929 1.50102,-0.33929 0.62411,0 1.18661,0.1007 1.68982,0.30303 l -0.19629,0.55551 c -0.19813,-0.0736 -0.41685,-0.13975 -0.65614,-0.19842 -0.2333,-0.0586 -0.4835,-0.0878 -0.75092,-0.0878 z"
         id="path1" />
      <path
         style="fill:#cc6600;stroke:#000000;stroke-opacity:1"
         d="m 91.061653,137.9808 c -0.743299,0 -1.375102,0.25328 -1.900594,0.76489 -0.532516,0.51844 -0.892924,1.24014 -1.079121,2.17627 -0.189237,0.95142 -0.133478,1.72241 0.173932,2.30198 0.320184,0.58028 0.911153,0.87352 1.769501,0.87352 0.327986,0 0.643416,-0.0305 0.945974,-0.0917 0.302111,-0.061 0.599077,-0.13707 0.890766,-0.22817 l -0.131184,0.89704 c -0.298498,0.11642 -0.603629,0.202 -0.915072,0.25655 -0.304797,0.0546 -0.665483,0.082 -1.08176,0.082 -0.769053,0 -1.378421,-0.17543 -1.825291,-0.52411 -0.443161,-0.34576 -0.72824,-0.83262 -0.856524,-1.45556 -0.119523,-0.61359 -0.09304,-1.32272 0.07557,-2.12219 0.159443,-0.75602 0.42575,-1.40928 0.797181,-1.9645 0.374044,-0.55404 0.838225,-0.97917 1.393251,-1.27951 0.551892,-0.30445 1.178122,-0.45577 1.88198,-0.45577 0.723053,0 1.333076,0.13519 1.832732,0.40703 l -0.457481,0.74771 c -0.199481,-0.0992 -0.425878,-0.1883 -0.679188,-0.26731 -0.246319,-0.0789 -0.524421,-0.11821 -0.834667,-0.11821 z m 8.85917,2.93056 c -0.03992,0.79227 -0.205351,1.4976 -0.498983,2.11103 -0.290721,0.6152 -0.70303,1.10183 -1.237027,1.45516 -0.538568,0.35634 -1.190584,0.53567 -1.952581,0.53567 -0.783165,0 -1.416243,-0.17933 -1.896148,-0.53567 -0.468853,-0.35333 -0.787492,-0.84373 -0.956955,-1.46633 -0.166922,-0.61326 -0.195742,-1.31841 -0.08992,-2.11045 0.102838,-0.76968 0.30958,-1.42936 0.618387,-1.98416 0.30446,-0.54698 0.709704,-0.96858 1.215947,-1.26877 0.508707,-0.29784 1.11986,-0.4459 1.836424,-0.4459 0.684575,0 1.249248,0.14806 1.69663,0.4459 0.451307,0.29364 0.78204,0.71516 0.991827,1.26877 0.219762,0.5548 0.311538,1.21794 0.272396,1.99475 z m -5.676824,0 c -0.117434,0.96563 -0.01668,1.74408 0.307842,2.3238 0.330006,0.58045 0.91902,0.87377 1.763528,0.87377 0.851487,0 1.494409,-0.29332 1.924189,-0.87377 0.424261,-0.57972 0.664822,-1.35817 0.725062,-2.3238 0.05882,-0.94278 -0.08014,-1.66417 -0.412536,-2.17571 -0.327577,-0.51146 -0.880739,-0.76468 -1.662718,-0.76468 -0.781979,0 -1.388121,0.25322 -1.822711,0.76468 -0.433022,0.51154 -0.708,1.23293 -0.822656,2.17571 z m 10.474951,3.98483 -2.34681,-6.72806 h -0.0388 c 0.0152,0.20481 0.0258,0.48403 0.0316,0.83928 0.006,0.35173 0.005,0.72379 -0.003,1.11674 l -0.0952,4.77204 h -0.87719 l 0.23094,-7.5881 h 1.27817 l 2.20064,6.10711 h 0.0415 l 2.06323,-6.10711 h 1.26855 l 0.4523,7.5881 h -0.94059 l -0.23383,-4.83434 c -0.0173,-0.35807 -0.0278,-0.70951 -0.0313,-1.05444 0.003,-0.3419 0.006,-0.61791 0.008,-0.82939 h -0.0388 l -2.18782,6.71817 z m 10.4734,0 h -4.21684 l -0.63821,-7.5881 h 3.83449 l 0.10372,0.77119 h -2.99966 l 0.21612,2.26372 h 2.90811 l 0.1089,0.8236 h -2.93838 l 0.26889,2.81637 h 3.23004 z m 4.04774,0 h -0.95117 l -1.16908,-6.81691 h -2.16481 l -0.11053,-0.77119 5.14148,0 0.16264,0.77119 h -2.15509 z"
         id="path2" />
    </g>
  </g>
  <metadata
     id="metadata1">
    <rdf:RDF>
      <cc:Work
         rdf:about="">
        <dc:creator>
          <cc:Agent>
            <dc:title>Nathan Trowers</dc:title>
          </cc:Agent>
        </dc:creator>
      </cc:Work>
    </rdf:RDF>
  </metadata>
</svg>
