<?xml version="1.0" encoding="UTF-8" standalone="no"?>
<!-- Created with Inkscape (http://www.inkscape.org/) -->

<svg
   width="131.47099mm"
   height="149.30161mm"
   viewBox="0 0 131.47099 149.30161"
   version="1.1"
   id="svg1"
   xml:space="preserve"
   xmlns="http://www.w3.org/2000/svg"
   xmlns:svg="http://www.w3.org/2000/svg"
   xmlns:rdf="http://www.w3.org/1999/02/22-rdf-syntax-ns#"
   xmlns:cc="http://creativecommons.org/ns#"
   xmlns:dc="http://purl.org/dc/elements/1.1/"><defs
     id="defs1" /><g
     id="layer2"
     transform="translate(-46.504857,-43.135737)"><path
       id="path22"
       style="fill:#31de84;fill-opacity:1"
       d="m 76.314205,43.144137 c -0.374951,0.04531 -0.723021,0.274326 -1.097091,0.692981 -0.411779,0.460854 -0.748791,0.985035 -0.748791,1.164786 0,0.179751 2.259188,4.247117 5.020365,9.038725 3.208877,5.568536 4.934557,8.814082 4.782137,8.995317 -0.13115,0.155948 -0.693693,0.518472 -1.250053,0.805118 -3.005897,1.548717 -7.564028,4.977866 -10.891325,8.193816 -9.059601,8.756444 -14.675414,19.398379 -16.962272,32.14326 -0.298309,1.66256 -0.542602,3.3592 -0.542602,3.77031 v 0.74724 h 0.03307 v 34.18189 H 171.58022 v -34.47541 h -0.01 v -0.7183 c 0,-1.60988 -0.97547,-6.59636 -1.95957,-10.015413 C 165.61736,83.79471 156.02635,71.323449 143.7962,64.101514 l -2.12958,-1.257805 0.76791,-1.349271 c 0.42249,-0.742268 2.62927,-4.553487 4.90357,-8.469251 2.2743,-3.915763 4.2049,-7.399354 4.2907,-7.741129 0.34801,-1.386559 -1.45381,-2.636226 -2.66082,-1.845366 -0.6248,0.409388 -1.47694,1.797928 -7.05487,11.494389 -2.59197,4.505784 -3.65337,6.129477 -3.94394,6.032707 -0.21868,-0.07283 -1.85942,-0.676246 -3.64578,-1.341004 -13.72249,-5.106557 -29.39042,-5.017541 -43.097107,0.24443 -2.464388,0.946073 -3.183018,1.127658 -3.429248,0.868164 -0.17133,-0.180561 -2.468657,-4.072646 -5.105115,-8.649601 -2.636457,-4.576957 -4.940334,-8.418025 -5.119584,-8.535397 -0.481464,-0.315273 -0.88337,-0.453553 -1.258321,-0.408243 z m 9.699666,39.357804 c 2.363088,0 3.716702,0.813378 4.623491,2.778125 0.981889,2.127458 0.353012,4.70213 -1.492416,6.109705 -0.816369,0.622679 -1.301269,0.771709 -2.740918,0.841809 -1.501468,0.07315 -1.905507,-0.01106 -2.856156,-0.593763 -1.514939,-0.928579 -2.607898,-3.106764 -2.354378,-4.69222 0.422909,-2.644747 2.37447,-4.443656 4.820377,-4.443656 z m 53.994639,0.0057 c 2.42425,0.01112 4.08468,1.224294 4.8333,3.531051 0.69199,2.132287 -0.37058,4.700915 -2.36524,5.718514 -3.08954,1.576168 -6.96933,-0.427531 -7.3489,-3.795117 -0.33967,-3.013496 1.8569,-5.468308 4.88084,-5.454448 z" /></g><g
     id="layer3"
     transform="translate(-46.266684,-37.69756)"><path
       id="path23"
       style="fill:#e91e63;stroke-width:1.90104"
       d="m 113.05627,65.908775 c -0.21235,0.0012 -3.72378,4.413616 -7.8041,9.807211 C 93.509427,91.238221 83.43767,103.27219 70.474562,117.26813 59.178221,129.4644 55.37112,134.59118 51.18238,143.25039 c -7.727854,15.97538 -6.306295,30.41769 3.997346,40.62086 1.318917,1.30603 2.428627,2.27983 3.552324,3.12791 h 11.220862 c -0.687913,-0.55904 -1.387321,-1.17312 -2.190731,-1.96869 -8.181074,-8.1013 -9.310005,-19.56843 -3.174103,-32.25286 1.551371,-3.20708 3.059474,-5.8129 5.113341,-8.65388 H 157.5674 c 1.25004,1.85319 2.26524,3.60293 3.29984,5.62026 6.29791,12.27992 5.47305,25.10603 -2.15536,33.5172 -1.2894,1.42169 -2.73332,2.65508 -4.2793,3.73797 h 8.97415 c 2.30619,-1.50719 4.43829,-3.28045 6.3207,-5.35596 9.60753,-10.59343 10.64719,-26.74745 2.71531,-42.21333 -3.89371,-7.59217 -7.32295,-12.07158 -20.30502,-26.52747 -10.32178,-11.49371 -20.15063,-23.300164 -32.00528,-38.443871 -3.68016,-4.701212 -6.8628,-8.546958 -7.07617,-8.549754 z m 0.65918,25.460612 c 0.17149,0.0048 2.6976,3.056305 5.6183,6.787312 9.41257,12.024151 17.216,21.398861 25.41149,30.524831 2.84313,3.16592 5.06897,5.69228 6.92486,7.87092 H 75.940581 c 1.231601,-1.38711 2.408458,-2.72351 3.96591,-4.40504 10.2927,-11.11276 18.289293,-20.66794 27.613029,-32.992584 3.23906,-4.281606 6.02624,-7.782812 6.19593,-7.785439 z" /></g><metadata
     id="metadata1"><rdf:RDF><cc:Work
         rdf:about=""><dc:creator><cc:Agent><dc:title>Nathan Trowers</dc:title></cc:Agent></dc:creator></cc:Work></rdf:RDF></metadata></svg>
