<?xml version="1.0" encoding="UTF-8" standalone="no"?>
<!-- Created with Inkscape (http://www.inkscape.org/) -->

<svg
   width="26.246702mm"
   height="26.184628mm"
   viewBox="0 0 26.246702 26.184628"
   version="1.1"
   id="svg1"
   xmlns:xlink="http://www.w3.org/1999/xlink"
   xmlns="http://www.w3.org/2000/svg"
   xmlns:svg="http://www.w3.org/2000/svg"
   xmlns:rdf="http://www.w3.org/1999/02/22-rdf-syntax-ns#"
   xmlns:cc="http://creativecommons.org/ns#"
   xmlns:dc="http://purl.org/dc/elements/1.1/">
  <defs
     id="defs1">
    <linearGradient
       xlink:href="#linearGradient24"
       id="linearGradient49"
       gradientUnits="userSpaceOnUse"
       gradientTransform="matrix(0.89725324,-0.89725324,0.89725324,0.89725324,-136.49441,124.96461)"
       x1="159.04967"
       y1="124.31642"
       x2="159.02672"
       y2="137.96111"
       spreadMethod="pad" />
    <linearGradient
       id="linearGradient24">
      <stop
         style="stop-color:#f40f0f;stop-opacity:1;"
         offset="0"
         id="stop23" />
      <stop
         style="stop-color:#0076ff;stop-opacity:1;"
         offset="1"
         id="stop24" />
    </linearGradient>
    <linearGradient
       xlink:href="#linearGradient24"
       id="linearGradient3"
       gradientUnits="userSpaceOnUse"
       gradientTransform="matrix(1.2689077,0,0,1.2689077,-72.65176,-68.842706)"
       x1="159.04967"
       y1="124.31642"
       x2="159.02672"
       y2="137.96111"
       spreadMethod="pad" />
    <linearGradient
       xlink:href="#linearGradient24"
       id="linearGradient4"
       gradientUnits="userSpaceOnUse"
       gradientTransform="matrix(-0.89725324,0.89725324,-0.89725324,-0.89725324,395.29136,85.409906)"
       x1="159.04967"
       y1="124.31642"
       x2="159.02672"
       y2="137.96111"
       spreadMethod="pad" />
    <linearGradient
       xlink:href="#linearGradient24"
       id="linearGradient5"
       gradientUnits="userSpaceOnUse"
       gradientTransform="matrix(-0.89725324,-0.89725324,0.89725324,-0.89725324,149.17283,371.0874)"
       x1="159.04967"
       y1="124.31642"
       x2="159.02672"
       y2="137.96111"
       spreadMethod="pad" />
  </defs>
  <g
     id="layer1"
     transform="translate(-116.2678,-92.156133)">
    <rect
       style="fill:#f40f0f;fill-opacity:1;stroke-width:0.179178"
       id="rect6"
       width="3.6028292"
       height="3.6028292"
       x="116.34529"
       y="92.156136" />
    <rect
       style="fill:#f40f0f;fill-opacity:1;stroke-width:0.179178"
       id="rect8"
       width="3.6028292"
       height="3.6028292"
       x="138.75679"
       y="114.65787" />
    <rect
       style="fill:#f40f0f;fill-opacity:1;stroke-width:0.179178"
       id="rect9"
       width="3.6028292"
       height="3.6028292"
       x="116.26781"
       y="114.73793" />
    <rect
       style="fill:#f40f0f;fill-opacity:1;stroke-width:0.179178"
       id="rect10"
       width="3.6028292"
       height="3.6028292"
       x="138.91168"
       y="92.209229" />
  </g>
  <metadata
     id="metadata1">
    <rdf:RDF>
      <cc:Work
         rdf:about="">
        <dc:creator>
          <cc:Agent>
            <dc:title>Nathan Trowers</dc:title>
          </cc:Agent>
        </dc:creator>
      </cc:Work>
    </rdf:RDF>
  </metadata>
  <g
     id="g3"
     transform="rotate(45,182.48143,-81.127709)">
    <path
       style="font-size:19.7556px;font-family:Serif;-inkscape-font-specification:Serif;text-align:center;text-anchor:middle;fill:url(#linearGradient49);fill-rule:nonzero;stroke-width:10.9507;stroke-linejoin:bevel;paint-order:markers stroke fill"
       d="m 126.51436,103.22436 -9.64283,-8.54382 2.0562,-2.056195 8.54382,9.642825 z m 4.16555,3.20835 q -0.46088,0.46088 -1.06355,0.5318 -0.58495,0.0532 -1.25853,-0.62041 -0.6913,-0.69131 -0.6204,-1.25853 0.0709,-0.60268 0.53178,-1.06356 0.46086,-0.46087 1.04582,-0.51403 0.58495,-0.0886 1.27625,0.60266 0.67359,0.67359 0.60268,1.27627 -0.0532,0.58494 -0.51405,1.0458 z"
       id="path49"
       aria-label="!"
       transform="rotate(-45,129.37304,105.29801)" />
    <path
       style="font-size:19.7556px;font-family:Serif;-inkscape-font-specification:Serif;text-align:center;text-anchor:middle;fill:url(#linearGradient3);fill-rule:nonzero;stroke-width:10.9507;stroke-linejoin:bevel;paint-order:markers stroke fill"
       d="M 128.69621,101.7599 127.91909,88.9 h 2.9079 l -0.77711,12.8599 z m 0.67684,5.21414 q -0.65178,0 -1.12808,-0.37601 -0.45122,-0.37602 -0.45122,-1.32861 0,-0.97765 0.45122,-1.3286 0.4763,-0.37603 1.12808,-0.37603 0.65176,0 1.10298,0.37603 0.4763,0.35095 0.4763,1.3286 0,0.95259 -0.4763,1.32861 -0.45122,0.37601 -1.10298,0.37601 z"
       id="path3"
       aria-label="!" />
    <path
       style="font-size:19.7556px;font-family:Serif;-inkscape-font-specification:Serif;text-align:center;text-anchor:middle;fill:url(#linearGradient4);fill-rule:nonzero;stroke-width:10.9507;stroke-linejoin:bevel;paint-order:markers stroke fill"
       d="m 132.28259,107.15016 9.64283,8.54382 -2.0562,2.05619 -8.54382,-9.64282 z m -4.16555,-3.20835 q 0.46088,-0.46088 1.06355,-0.5318 0.58495,-0.0532 1.25853,0.62041 0.6913,0.6913 0.6204,1.25852 -0.0709,0.60269 -0.53178,1.06357 -0.46086,0.46086 -1.04582,0.51403 -0.58495,0.0886 -1.27625,-0.60267 -0.67359,-0.67358 -0.60268,-1.27626 0.0532,-0.58494 0.51405,-1.0458 z"
       id="path2"
       aria-label="!"
       transform="rotate(-45,129.37304,105.29801)" />
    <path
       style="font-size:19.7556px;font-family:Serif;-inkscape-font-specification:Serif;text-align:center;text-anchor:middle;fill:url(#linearGradient5);fill-rule:nonzero;stroke-width:10.9507;stroke-linejoin:bevel;paint-order:markers stroke fill"
       d="m 127.43257,108.07862 -8.54382,9.64283 -2.05619,-2.05619 9.64282,-8.54383 z m 3.20836,-4.16555 q 0.46087,0.46088 0.53179,1.06355 0.0532,0.58495 -0.62041,1.25853 -0.6913,0.6913 -1.25852,0.6204 -0.60269,-0.0709 -1.06357,-0.53178 -0.46086,-0.46086 -0.51403,-1.04581 -0.0886,-0.58496 0.60267,-1.27626 0.67358,-0.67358 1.27626,-0.60268 0.58494,0.0532 1.04581,0.51405 z"
       id="path1"
       aria-label="!"
       transform="rotate(-45,129.37304,105.29801)" />
  </g>
</svg>
